<svg width="36" height="36" viewBox="0 0 36 36" fill="none" xmlns="http://www.w3.org/2000/svg">
<mask id="mask0_692_11387" style="mask-type:luminance" maskUnits="userSpaceOnUse" x="0" y="0" width="36" height="36">
<path d="M36 0H0V36H36V0Z" fill="white"/>
</mask>
<g mask="url(#mask0_692_11387)">
<path d="M25.5 10.5L18.75 9.75L10.5 10.5L9.75 18L10.5 25.5L18 26.4375L25.5 25.5L26.25 17.8125L25.5 10.5Z" fill="white"/>
<path d="M13.5766 22.1364C13.016 21.7577 12.6279 21.2046 12.416 20.4733L13.7173 19.9371C13.8354 20.3871 14.0416 20.7358 14.336 20.9833C14.6285 21.2308 14.9848 21.3527 15.401 21.3527C15.8266 21.3527 16.1923 21.2233 16.4979 20.9646C16.8035 20.7058 16.9573 20.3758 16.9573 19.9764C16.9573 19.5677 16.796 19.2339 16.4735 18.9752C16.151 18.7164 15.746 18.5871 15.2623 18.5871H14.5104V17.2989H15.1854C15.6016 17.2989 15.9523 17.1864 16.2373 16.9614C16.5223 16.7364 16.6648 16.4289 16.6648 16.0371C16.6648 15.6883 16.5373 15.4108 16.2823 15.2027C16.0273 14.9946 15.7048 14.8896 15.3129 14.8896C14.9304 14.8896 14.6266 14.9908 14.4016 15.1952C14.1766 15.3996 14.0135 15.6508 13.9104 15.9471L12.6223 15.4108C12.7929 14.9271 13.106 14.4996 13.5654 14.1302C14.0248 13.7608 14.6116 13.5752 15.3241 13.5752C15.851 13.5752 16.3254 13.6764 16.7454 13.8808C17.1654 14.0852 17.4954 14.3683 17.7335 14.7283C17.9716 15.0902 18.0898 15.4952 18.0898 15.9452C18.0898 16.4046 17.9791 16.7927 17.7579 17.1114C17.5366 17.4302 17.2648 17.6739 16.9423 17.8446V17.9214C17.3679 18.0996 17.7148 18.3714 17.9885 18.7371C18.2604 19.1027 18.3973 19.5396 18.3973 20.0496C18.3973 20.5596 18.2679 21.0152 18.0091 21.4146C17.7504 21.8139 17.3923 22.1289 16.9385 22.3577C16.4829 22.5864 15.971 22.7027 15.4029 22.7027C14.7448 22.7046 14.1373 22.5152 13.5766 22.1364Z" fill="#2684FC"/>
<path d="M21.5633 15.6787L20.142 16.7118L19.4277 15.628L21.9908 13.7793H22.9733V22.4999H21.5633V15.6787Z" fill="#2684FC"/>
<path d="M25.5 32.25L32.25 25.5V24H25.5V25.5H24V32.25H25.5Z" fill="#E94235"/>
<path d="M25.5 25.5H9V32.25H25.5V25.5Z" fill="#00AC47"/>
<path d="M6 3.75C4.75687 3.75 3.75 4.75687 3.75 6V27H10.5V10.5H27V3.75H6Z" fill="#2684FC"/>
<path d="M3.75 25.5V30C3.75 31.2431 4.75687 32.25 6 32.25H10.5V25.5H3.75Z" fill="#00832D"/>
<path d="M32.25 9H25.5V25.5H32.25V9Z" fill="#FFBA00"/>
<path d="M32.25 10.5V6C32.25 4.75687 31.2431 3.75 30 3.75H25.5V10.5H32.25Z" fill="#0066DA"/>
</g>
</svg>
