<svg width="37" height="33" viewBox="0 0 37 33" fill="none" xmlns="http://www.w3.org/2000/svg">
<path d="M3.57109 28.0438L5.1461 30.7642C5.4731 31.337 5.94309 31.787 6.49609 32.1142L12.1211 22.3779H0.871094C0.871094 23.012 1.03409 23.6461 1.36209 24.2188L3.57109 28.0438Z" fill="#0066DA"/>
<path d="M18.7271 10.9234L13.1021 1.18701C12.5501 1.51429 12.0801 1.96429 11.7521 2.53701L1.36209 20.5371C1.03409 21.1098 0.871094 21.7439 0.871094 22.378H12.1211L18.7271 10.9234Z" fill="#00AC47"/>
<path d="M18.7285 10.9236L24.3535 1.1872C23.8005 0.859929 23.1665 0.696289 22.5125 0.696289H14.9435C14.2895 0.696289 13.6555 0.880379 13.1035 1.1872L18.7285 10.9236Z" fill="#00832D"/>
<path d="M25.3341 22.3779H12.1211L6.49609 32.1142C7.04809 32.4415 7.68209 32.6051 8.33709 32.6051H29.1181C29.7731 32.6051 30.4071 32.4211 30.9591 32.1142L25.3341 22.3779Z" fill="#2684FC"/>
<path d="M30.9585 32.1142C31.5105 31.787 31.9815 31.337 32.3085 30.7642L32.9635 29.6392L36.0925 24.2188C36.4195 23.6461 36.5835 23.012 36.5835 22.3779H25.3535L30.9585 32.1142Z" fill="#EA4335"/>
<path d="M30.8985 11.5371L25.7035 2.53701C25.3755 1.96429 24.9055 1.51429 24.3535 1.18701L18.7285 10.9234L25.3345 22.378H36.5645C36.5645 21.7439 36.4005 21.1098 36.0735 20.5371L30.8985 11.5371Z" fill="#FFBA00"/>
</svg>
