<svg width="27" height="37" viewBox="0 0 27 37" fill="none" xmlns="http://www.w3.org/2000/svg">
<path d="M9 27.0601H0V33.6056C0 34.9617 1.098 36.0601 2.455 36.0601H9V27.0601Z" fill="#00832D"/>
<path d="M9 0.0600586H2.455C1.098 0.0600586 0 1.15847 0 2.51461V9.06006V18.0601V27.0601H9V18.0601V9.06006H17.182V0.0600586H9Z" fill="#FFBA00"/>
<path d="M26.1816 27.0601H17.1816V36.0601H23.7266C25.0826 36.0601 26.1816 34.9617 26.1816 33.6056V27.0601Z" fill="#0066DA"/>
<path d="M17.182 27.0601H9V36.0601H17.182V27.0601Z" fill="#00AC47"/>
<path d="M17.1816 9.06006V18.0601V27.0601H26.1816V18.0601V9.06006H17.1816Z" fill="#2684FC"/>
<path d="M17.1816 0.0600586V9.06006H26.1816L17.1816 0.0600586Z" fill="#EA4335"/>
<path d="M17.182 9.06006H9V27.0601H17.182V9.06006Z" fill="white"/>
</svg>
