<svg width="17" height="17" viewBox="0 0 17 17" fill="none" xmlns="http://www.w3.org/2000/svg">
<path fill-rule="evenodd" clip-rule="evenodd" d="M8.77031 14.9801C7.83698 14.9801 6.97031 14.7801 6.17031 14.3801C5.37031 14.0467 4.67031 13.5801 4.07031 12.9801C3.47031 12.3801 3.00365 11.6801 2.67031 10.8801C2.27031 10.0801 2.07031 9.21341 2.07031 8.28008C2.07031 7.34674 2.27031 6.48008 2.67031 5.68008C3.00365 4.88008 3.47031 4.18008 4.07031 3.58008C4.67031 2.98008 5.37031 2.51341 6.17031 2.18008C6.97031 1.78008 7.83698 1.58008 8.77031 1.58008C9.70365 1.58008 10.5703 1.78008 11.3703 2.18008C12.1703 2.51341 12.8703 2.98008 13.4703 3.58008C14.0703 4.18008 14.537 4.88008 14.8703 5.68008C15.2703 6.48008 15.4703 7.34674 15.4703 8.28008C15.4703 9.21341 15.2703 10.0801 14.8703 10.8801C14.537 11.6801 14.0703 12.3801 13.4703 12.9801C12.8703 13.5801 12.1703 14.0467 11.3703 14.3801C10.5703 14.7801 9.70365 14.9801 8.77031 14.9801ZM8.77031 13.5801C10.237 13.5801 11.5036 13.0801 12.5703 12.0801C13.5703 11.0134 14.0703 9.74674 14.0703 8.28008C14.0703 6.81341 13.5703 5.54674 12.5703 4.48008C11.5036 3.48008 10.237 2.98008 8.77031 2.98008C7.30365 2.98008 6.03698 3.48008 4.97031 4.48008C3.97031 5.54674 3.47031 6.81341 3.47031 8.28008C3.47031 9.74674 3.97031 11.0134 4.97031 12.0801C6.03698 13.0801 7.30365 13.5801 8.77031 13.5801ZM8.07031 7.58008H9.47031V11.5801H8.07031V7.58008ZM8.27031 6.08008C8.13698 5.94674 8.07031 5.78008 8.07031 5.58008C8.07031 5.38008 8.13698 5.24674 8.27031 5.18008C8.40365 5.04674 8.57031 4.98008 8.77031 4.98008C8.97031 4.98008 9.13698 5.04674 9.27031 5.18008C9.40365 5.24674 9.47031 5.38008 9.47031 5.58008C9.47031 5.78008 9.40365 5.94674 9.27031 6.08008C9.13698 6.21341 8.97031 6.28008 8.77031 6.28008C8.57031 6.28008 8.40365 6.21341 8.27031 6.08008Z" fill="#1967D2"/>
</svg>
