<svg width="188" height="25" viewBox="0 0 188 25" fill="none" xmlns="http://www.w3.org/2000/svg">
<path d="M97.8301 2.32812H100.033L95.627 18.7344H93.4707L89.9551 7.90625H89.8613L86.2988 18.7344H84.1426L79.5957 2.32812H81.7988L85.2676 15.2188H85.3613L88.9238 4.53125H90.8926L94.4551 15.2188H94.5488L97.8301 2.32812Z" fill="#5F6368"/>
<mask id="mask0_692_14114" style="mask-type:luminance" maskUnits="userSpaceOnUse" x="0" y="0" width="188" height="25">
<path d="M0 0.5H187.316V24.5H0V0.5Z" fill="white"/>
</mask>
<g mask="url(#mask0_692_14114)">
<path d="M99.7988 13.1094C99.7988 11.3906 100.346 9.96875 101.439 8.84375C102.533 7.71875 103.924 7.15625 105.611 7.15625C107.299 7.15625 108.674 7.71875 109.736 8.84375C110.83 9.96875 111.377 11.3906 111.377 13.1094C111.377 14.8594 110.83 16.2969 109.736 17.4219C108.643 18.5469 107.268 19.1094 105.611 19.1094C103.955 19.1094 102.564 18.5469 101.439 17.4219C100.346 16.2969 99.7988 14.8594 99.7988 13.1094ZM101.908 13.1094C101.908 14.3281 102.268 15.3125 102.986 16.0625C103.705 16.8125 104.58 17.1875 105.611 17.1875C106.643 17.1875 107.518 16.8125 108.236 16.0625C108.955 15.3125 109.299 14.3281 109.268 13.1094C109.268 11.9219 108.924 10.9531 108.236 10.2031C107.518 9.45312 106.643 9.07812 105.611 9.07812C104.58 9.07812 103.705 9.45312 102.986 10.2031C102.268 10.9531 101.908 11.9219 101.908 13.1094ZM114.986 18.7344H112.877V7.48438H114.893V9.35938H114.986C115.205 8.73438 115.658 8.21875 116.346 7.8125C117.033 7.40625 117.689 7.1875 118.314 7.15625C118.908 7.15625 119.424 7.25 119.861 7.4375L119.205 9.5C118.955 9.40625 118.549 9.35938 117.986 9.35938C117.174 9.35938 116.471 9.67188 115.877 10.2969C115.283 10.9219 114.986 11.6719 114.986 12.5469V18.7344ZM130.736 18.7344H128.158L124.689 13.4375L122.955 15.1719V18.7344H120.846V2.32812H122.955V12.4531L127.83 7.48438H130.502V7.57812L126.143 11.9375L130.736 18.6406V18.7344Z" fill="#5F6368"/>
<path d="M139.877 15.6406C139.877 16.6094 139.455 17.4375 138.611 18.125C137.768 18.8125 136.674 19.1406 135.33 19.1094C134.205 19.1094 133.221 18.8125 132.377 18.2188C131.546 17.6591 130.908 16.8571 130.549 15.9219L132.424 15.125C132.705 15.7812 133.096 16.2969 133.596 16.6719C134.099 17.0406 134.707 17.2378 135.33 17.2344C136.018 17.2344 136.58 17.0938 137.018 16.8125C137.455 16.5312 137.69 16.1875 137.721 15.7812C137.721 15.0625 137.174 14.5312 136.08 14.1875L134.111 13.7188C131.924 13.1562 130.83 12.0938 130.83 10.5312C130.83 9.5 131.252 8.67188 132.096 8.04688C132.94 7.42188 134.002 7.10938 135.283 7.10938C136.283 7.10938 137.19 7.35937 138.002 7.85938C138.815 8.35938 139.377 8.98438 139.69 9.73438L137.815 10.5312C137.603 10.0537 137.241 9.65851 136.783 9.40625C136.278 9.14075 135.713 9.01149 135.143 9.03125C134.617 9.00844 134.096 9.13871 133.643 9.40625C133.205 9.6875 132.986 10.0312 132.986 10.4375C132.986 11.0938 133.596 11.5469 134.815 11.7969L136.502 12.2656C138.752 12.7969 139.877 13.9219 139.877 15.6406ZM147.19 19.1094C146.377 19.1094 145.627 18.9375 144.94 18.5938C144.252 18.25 143.737 17.7812 143.393 17.1875H143.299L143.393 18.7344V23.7031H141.283V7.48438H143.299V9.07812H143.393C143.737 8.48438 144.252 8.01562 144.94 7.67188C145.627 7.32812 146.393 7.15625 147.237 7.15625C148.705 7.15625 149.955 7.73438 150.987 8.89062C152.049 10.0469 152.581 11.4531 152.581 13.1094C152.581 14.7969 152.049 16.2188 150.987 17.375C149.955 18.5312 148.705 19.1094 147.237 19.1094M146.862 17.1875C147.893 17.1875 148.752 16.8125 149.44 16.0625C150.127 15.3125 150.471 14.3281 150.471 13.1094C150.471 11.9531 150.127 10.9844 149.44 10.2031C148.752 9.42188 147.893 9.04688 146.862 9.07812C145.83 9.07812 144.971 9.45312 144.283 10.2031C143.627 10.9844 143.299 11.9531 143.299 13.1094C143.299 14.3281 143.627 15.3125 144.283 16.0625C144.971 16.8125 145.83 17.1875 146.862 17.1875ZM158.346 7.15625C159.909 7.15625 161.143 7.5625 162.049 8.375C162.956 9.1875 163.409 10.3281 163.409 11.7969V18.7344H161.393V17.1875H161.299C160.424 18.4688 159.253 19.1094 157.784 19.1094C156.565 19.1094 155.534 18.75 154.69 18.0312C153.846 17.3125 153.424 16.3906 153.424 15.2656C153.424 14.1094 153.862 13.1875 154.737 12.5C155.612 11.8125 156.799 11.4688 158.299 11.4688C159.549 11.4688 160.581 11.6875 161.393 12.125V11.6562C161.393 10.9062 161.096 10.2812 160.503 9.78125C159.946 9.29074 159.228 9.02356 158.487 9.03125C157.299 9.03125 156.362 9.53125 155.674 10.5312L153.799 9.35938C154.831 7.89062 156.346 7.15625 158.346 7.15625ZM155.627 15.3125C155.627 15.875 155.862 16.3281 156.331 16.6719C156.799 17.0156 157.346 17.2031 157.971 17.2344C158.846 17.2344 159.628 16.9062 160.315 16.25C161.003 15.5938 161.362 14.8281 161.393 13.9531C160.737 13.4219 159.815 13.1562 158.628 13.1562C157.784 13.1562 157.065 13.3594 156.471 13.7656C155.877 14.1719 155.596 14.6875 155.627 15.3125ZM170.581 19.1094C168.893 19.1094 167.503 18.5469 166.409 17.4219C165.315 16.2656 164.768 14.8281 164.768 13.1094C164.768 11.3906 165.315 9.96875 166.409 8.84375C167.503 7.71875 168.893 7.15625 170.581 7.15625C171.737 7.15625 172.737 7.4375 173.581 8C174.425 8.5625 175.065 9.35938 175.503 10.3906L173.581 11.1875C172.987 9.78125 171.94 9.07812 170.44 9.07812C169.472 9.07812 168.628 9.46875 167.909 10.25C167.221 11.0312 166.878 11.9844 166.878 13.1094C166.878 14.2344 167.221 15.2031 167.909 16.0156C168.628 16.7969 169.472 17.1875 170.44 17.1875C171.972 17.1875 173.05 16.4844 173.675 15.0781L175.597 15.875C175.159 16.9062 174.503 17.7031 173.628 18.2656C172.753 18.8281 171.737 19.1094 170.581 19.1094ZM181.925 19.1094C180.269 19.1094 178.909 18.5469 177.847 17.4219C176.784 16.2969 176.253 14.8594 176.253 13.1094C176.253 11.4219 176.769 10 177.8 8.84375C178.831 7.6875 180.159 7.125 181.784 7.15625C183.472 7.15625 184.8 7.6875 185.769 8.75C186.738 9.8125 187.238 11.3281 187.269 13.2969V13.5312H178.409C178.44 14.625 178.8 15.5156 179.487 16.2031C180.175 16.8906 181.019 17.2188 182.019 17.1875C183.362 17.1875 184.425 16.5156 185.206 15.1719L187.081 16.1094C186.594 17.024 185.864 17.7864 184.972 18.3125C184.097 18.8438 183.081 19.1094 181.925 19.1094ZM178.55 11.75H185.019C184.956 10.9688 184.644 10.3281 184.081 9.82812C183.519 9.32812 182.737 9.07812 181.737 9.07812C180.956 9.07812 180.284 9.3125 179.722 9.78125C179.159 10.25 178.769 10.9062 178.55 11.75Z" fill="#5F6368"/>
</g>
<mask id="mask1_692_14114" style="mask-type:luminance" maskUnits="userSpaceOnUse" x="0" y="0" width="188" height="25">
<path d="M0 0.5H187.316V24.5H0V0.5Z" fill="white"/>
</mask>
<g mask="url(#mask1_692_14114)">
<path d="M9.46875 11.5625V8.98438H18C18.0978 9.50989 18.1449 10.0436 18.1406 10.5781C18.1406 12.4531 17.625 14.8438 15.9375 16.4844C14.2969 18.2188 12.2344 19.1094 9.42188 19.1094C4.3125 19.1094 0 14.9375 0 9.82812C0 4.71875 4.3125 0.5 9.42188 0.5C12.2812 0.5 14.2969 1.625 15.8438 3.07812L14.0156 4.85938C13.0634 3.95058 11.863 3.34453 10.5664 3.11784C9.26974 2.89116 7.93498 3.05402 6.73088 3.58583C5.52677 4.11764 4.50738 4.99453 3.80158 6.10563C3.09579 7.21673 2.73527 8.51216 2.76562 9.82812C2.76562 13.5781 5.71875 16.5781 9.42188 16.5781C11.8594 16.5781 13.2656 15.5938 14.1562 14.7031C14.8594 14 15.3281 12.9688 15.5156 11.5625H9.46875Z" fill="#4285F4"/>
<path d="M31.125 13.1094C31.125 16.5781 28.4062 19.1094 25.0781 19.1094C21.75 19.1094 19.0781 16.5781 19.0781 13.1094C19.0781 9.64062 21.7969 7.10938 25.0781 7.10938C28.3594 7.10938 31.125 9.64062 31.125 13.1094ZM28.4531 13.1094C28.4531 10.9531 26.9062 9.5 25.0781 9.5C23.25 9.5 21.7031 10.9531 21.7031 13.1094C21.7031 15.2656 23.2969 16.7656 25.0781 16.7656C26.8594 16.7656 28.4531 15.2656 28.4531 13.1094Z" fill="#EA4335"/>
<path d="M44.25 13.1094C44.25 16.5781 41.5312 19.1094 38.2031 19.1094C34.875 19.1094 32.2031 16.5781 32.2031 13.1094C32.2031 9.64062 34.9219 7.10938 38.2031 7.10938C41.4844 7.10938 44.25 9.64062 44.25 13.1094ZM41.5781 13.1094C41.5781 10.9531 40.0312 9.5 38.2031 9.5C36.375 9.5 34.8281 10.9531 34.8281 13.1094C34.8281 15.2656 36.4219 16.7656 38.2031 16.7656C39.9844 16.7656 41.5781 15.2656 41.5781 13.1094Z" fill="#FBBC04"/>
<path d="M56.8145 7.48438V18.2656C56.8145 22.6719 54.1895 24.5 51.0957 24.5C48.1895 24.5 46.4551 22.5312 45.7988 20.9375L48.0957 20C48.5176 20.9844 49.502 22.1562 51.0957 22.1562C53.1113 22.1562 54.3301 20.8906 54.3301 18.6406V17.75H54.2363C53.8374 18.1967 53.345 18.5501 52.7941 18.7851C52.2432 19.02 51.6474 19.1307 51.0488 19.1094C48.0957 19.1094 45.3301 16.4844 45.3301 13.1562C45.3301 9.78125 48.0957 7.10938 51.0488 7.10938C52.502 7.10938 53.627 7.76562 54.2363 8.46875H54.3301V7.48438H56.8145ZM54.5176 13.1562C54.5176 11.0469 53.1113 9.5 51.2832 9.5C49.502 9.5 47.9551 11.0469 47.9551 13.1562C47.9551 15.2188 49.502 16.7656 51.2832 16.7656C53.1113 16.7656 54.5176 15.2188 54.5176 13.1562Z" fill="#4285F4"/>
<path d="M58.6426 1.20312H61.2676V18.7812H58.6426V1.20312Z" fill="#34A853"/>
<path d="M71.4395 15.0781L73.502 16.4844C72.8457 17.4219 71.252 19.1094 68.4863 19.1094C65.0645 19.1094 62.5332 16.4844 62.5332 13.1094C62.5332 9.54688 65.1113 7.10938 68.2051 7.10938C71.2988 7.10938 72.8457 9.59375 73.3145 10.9531L73.5957 11.6094L65.5801 14.9375C66.1895 16.1562 67.127 16.7656 68.4863 16.7656C69.8457 16.7656 70.7363 16.1094 71.4395 15.0781ZM65.1582 12.9219L70.502 10.7188C70.2207 9.96875 69.3301 9.45312 68.2988 9.45312C66.9395 9.45312 65.0645 10.625 65.1582 12.9219Z" fill="#EA4335"/>
</g>
</svg>
