<svg width="36" height="28" viewBox="0 0 36 28" fill="none" xmlns="http://www.w3.org/2000/svg">
<path d="M2.45455 27.151H8.18182V13.2419L0 7.10547V24.6964C0 26.0526 1.09841 27.151 2.45455 27.151Z" fill="#4285F4"/>
<path d="M27.8184 27.151H33.5456C34.9018 27.151 36.0002 26.0526 36.0002 24.6964V7.10547L27.8184 13.2419V27.151Z" fill="#34A853"/>
<path d="M27.8184 2.60569V13.2421L36.0002 7.10566V3.83297C36.0002 0.799556 32.5372 -0.932944 30.1093 0.887506L27.8184 2.60569Z" fill="#FBBC04"/>
<path fill-rule="evenodd" clip-rule="evenodd" d="M8.18164 13.2419V2.60547L17.9998 9.96906L27.818 2.60547V13.2419L17.9998 20.6055L8.18164 13.2419Z" fill="#EA4335"/>
<path d="M0 3.83297V7.10566L8.18182 13.2421V2.60569L5.89091 0.887506C3.46295 -0.932944 0 0.799556 0 3.83297Z" fill="#C5221F"/>
</svg>
