<svg width="12" height="16" viewBox="0 0 12 16" fill="none" xmlns="http://www.w3.org/2000/svg">
<g clip-path="url(#clip0_692_11466)">
<g clip-path="url(#clip1_692_11466)">
<path d="M4.28667 9.35657L5.83333 8.18324L7.37333 9.35657L6.78667 7.45657L8.33333 6.2299H6.44L5.83333 4.35657L5.22667 6.2299H3.33333L4.87333 7.45657L4.28667 9.35657ZM11.1667 6.89657C11.1667 3.9499 8.78 1.56323 5.83333 1.56323C2.88667 1.56323 0.5 3.9499 0.5 6.89657C0.5 8.2499 1.00667 9.47657 1.83333 10.4166V15.5632L5.83333 14.2299L9.83333 15.5632V10.4166C10.66 9.47657 11.1667 8.2499 11.1667 6.89657ZM5.83333 2.89657C8.04 2.89657 9.83333 4.6899 9.83333 6.89657C9.83333 9.10324 8.04 10.8966 5.83333 10.8966C3.62667 10.8966 1.83333 9.10324 1.83333 6.89657C1.83333 4.6899 3.62667 2.89657 5.83333 2.89657Z" fill="#1967D2"/>
</g>
</g>
<defs>
<clipPath id="clip0_692_11466">
<rect width="12" height="15" fill="white" transform="translate(0 0.780029)"/>
</clipPath>
<clipPath id="clip1_692_11466">
<rect width="12" height="15" fill="white" transform="translate(0 0.780029)"/>
</clipPath>
</defs>
</svg>
