<svg width="37" height="30" viewBox="0 0 37 30" fill="none" xmlns="http://www.w3.org/2000/svg">
<path d="M20.9082 15.0605L24.3982 19.0491L29.0902 22.0478L29.9082 15.0871L29.0902 8.27979L24.3082 10.9144L20.9082 15.0605Z" fill="#00832D"/>
<path d="M0.658203 21.401V27.3329C0.658203 28.689 1.75721 29.7874 3.1132 29.7874H9.04521L10.2722 25.3038L9.04521 21.401L4.97421 20.1738L0.658203 21.401Z" fill="#0066DA"/>
<path d="M9.04521 0.333008L0.658203 8.71936L4.97421 9.94666L9.04521 8.71936L10.2512 4.86778L9.04521 0.333008Z" fill="#E94235"/>
<path d="M9.04521 8.71924H0.658203V21.401H9.04521V8.71924Z" fill="#2684FC"/>
<path d="M34.4488 3.88415L29.0918 8.27986V22.0478L34.4708 26.4599C35.2768 27.0899 36.4548 26.5151 36.4548 25.4924V4.83324C36.4548 3.7962 35.2508 3.22756 34.4488 3.88415Z" fill="#00AC47"/>
<path d="M20.9089 15.0601V21.401H9.04492V29.7874H26.6359C27.9919 29.7874 29.0909 28.689 29.0909 27.3328V22.0474L20.9089 15.0601Z" fill="#00AC47"/>
<path d="M26.6359 0.333008H20.2199H9.04492V8.71936H20.9089V15.0603L29.0909 8.27956V2.78755C29.0909 1.43142 27.9919 0.333008 26.6359 0.333008Z" fill="#FFBA00"/>
</svg>
